<?xml version="1.0" encoding="utf-8"?>
<!-- Generator: Adobe Illustrator 16.0.0, SVG Export Plug-In . SVG Version: 6.00 Build 0)  -->
<!DOCTYPE svg PUBLIC "-//W3C//DTD SVG 1.1//EN" "http://www.w3.org/Graphics/SVG/1.1/DTD/svg11.dtd">
<svg version="1.1" id="Capa_1" xmlns="http://www.w3.org/2000/svg" xmlns:xlink="http://www.w3.org/1999/xlink" x="0px" y="0px"
	 width="841.889px" height="595.281px" viewBox="0 0 841.889 595.281" enable-background="new 0 0 841.889 595.281"
	 xml:space="preserve">
<g>
	<path fill="#998675" d="M656.512,314.095c-10.316-61.466-55.423-73.373-75.013-75.611c-13.91-18.721-34.043-28.963-57.191-28.963
		c-5.552,0-10.766,0.788-15.45,1.655c-13.733-15.815-32.091-24.159-53.576-24.159c-0.437,0-1.662,0-1.662,0v-77.483
		c0-33.933-25.483-59.524-59.417-59.524c-33.936,0-59.418,25.59-59.418,59.524V258.89l-1.468-2.11
		c-11.235-18.271-29.344-28.741-49.673-28.743c-21.908-0.002-43.052,12.368-53.837,31.506c-10.298,18.286-9.79,39.58,1.389,58.562
		l129.938,248.828c5.183,9.922,15.353,16.207,26.546,16.207H570.64c15.799,0,28.934-12.476,29.902-28.247l4.251-69.307
		C650.18,415.739,665.181,365.735,656.512,314.095z M580.15,478.668l-4.577,74.69c-0.158,2.605-2.32,4.761-4.931,4.761H387.681
		c-1.839,0-3.526-1.146-4.378-2.776L253.031,305.954c-16.53-27.282,6.768-52.872,30.562-52.87
		c10.527,0.002,21.153,4.989,28.464,17.058l16.666,25.596c3.446,5.295,8.794,7.663,13.994,7.663c8.563,0,17.083-6.435,17.083-16.838
		V109.534c0-23.004,17.146-34.506,34.399-34.506c17.255,0,34.399,11.502,34.399,34.506v100.642c0,2.806,2.308,4.956,4.927,4.956
		c0.49,0,1.003-0.077,1.503-0.238c4.816-1.551,11.938-3.262,19.911-3.261c13.694,0,29.919,5.05,41.327,24.62
		c0.963,1.65,2.698,2.631,4.512,2.631c0.579,0,1.172-0.102,1.745-0.313c4.587-1.689,12.601-4.028,21.784-4.028
		c12.786,0,27.844,4.537,39.076,21.683c2.68,4.091,7.213,6.567,12.092,6.843c15.508,0.879,48.507,8.36,56.364,55.168
		c7.543,44.945-5.458,89.226-50.877,158.015C580.489,476.969,580.202,477.807,580.15,478.668z"/>
	<path fill="#998675" d="M254.998,24.65c0-6.907-5.6-12.509-12.509-12.509c-6.908,0-12.509,5.602-12.509,12.509v119.367
		l-25.372-25.024c-4.883-4.883-12.979-4.885-17.865,0.002c-4.885,4.884-4.971,12.805-0.085,17.69l46.631,46.671
		c4.883,4.883,12.783,4.885,17.669-0.002l47.887-47.899c4.885-4.884,4.878-12.805-0.009-17.689
		c-2.441-2.442-5.646-3.664-8.848-3.664c-3.2,0-6.056,1.222-8.5,3.666l-26.49,26.838V24.65z"/>
</g>
</svg>
