<?xml version="1.0" encoding="utf-8"?>
<!-- Generator: Adobe Illustrator 16.0.0, SVG Export Plug-In . SVG Version: 6.00 Build 0)  -->
<!DOCTYPE svg PUBLIC "-//W3C//DTD SVG 1.1//EN" "http://www.w3.org/Graphics/SVG/1.1/DTD/svg11.dtd">
<svg version="1.1" id="Capa_1" xmlns="http://www.w3.org/2000/svg" xmlns:xlink="http://www.w3.org/1999/xlink" x="0px" y="0px"
	 width="123.065px" height="123.064px" viewBox="202.757 132.845 123.065 123.064"
	 enable-background="new 202.757 132.845 123.065 123.064" xml:space="preserve">
<g>
	<path fill="#32E0B2" d="M264.291,215.256c3.074,0,5.568,2.491,5.568,5.569c0,3.071-2.494,5.569-5.568,5.569
		c-3.076,0-5.57-2.498-5.57-5.569C258.72,217.748,261.214,215.256,264.291,215.256z"/>
	<path fill="none" stroke="#32E0B2" stroke-width="1.6983" stroke-miterlimit="10" d="M264.291,140.344
		c-29.867,0-54.035,24.164-54.035,54.034c0,29.861,24.168,54.032,54.035,54.032c29.861,0,54.033-24.171,54.033-54.032
		C318.324,164.508,294.16,140.344,264.291,140.344z"/>
	<path fill="#32E0B2" d="M264.291,165.952c-9.809,0-17.836,8.036-17.836,17.835h8.922c0-4.883,4.004-8.908,8.904-8.908
		c4.893,0,8.906,4.025,8.906,8.908c0,4.898-4.014,8.918-8.906,8.918c-2.457,0-4.453,1.999-4.453,4.457v11.146h8.904v-7.25
		c7.691-2.002,13.369-8.957,13.369-17.271C282.107,173.988,274.101,165.952,264.291,165.952z"/>
</g>
<g display="none">
	<path display="inline" fill="none" stroke="#32E0B2" stroke-width="1.6915" stroke-miterlimit="10" d="M264.291,140.561
		c-29.748,0-53.816,24.065-53.816,53.816c0,29.742,24.068,53.816,53.816,53.816c29.739,0,53.816-24.074,53.816-53.816
		C318.107,164.626,294.03,140.561,264.291,140.561z"/>
	<path display="inline" fill="#32E0B2" d="M285.993,181.731h-10.316c-0.634,0-1.215-0.473-1.351-1.106l-0.475-2.033
		c-0.605-2.546-2.839-4.343-5.454-4.343h-8.177c-2.627,0-4.856,1.788-5.466,4.343l-0.476,2.033
		c-0.168,0.667-0.707,1.106-1.383,1.106h-10.292c-2.075,0-3.758,1.675-3.758,3.757v24.92c0,2.261,1.825,4.091,4.082,4.091h42.731
		c2.241,0,4.066-1.813,4.066-4.091v-24.92C289.735,183.406,288.068,181.731,285.993,181.731z M245.584,189.131
		c-1.017,0-1.875-0.829-1.875-1.887c0-1.041,0.858-1.903,1.875-1.903c1.057,0,1.907,0.862,1.907,1.903
		C247.492,188.302,246.641,189.131,245.584,189.131z M264.306,207.244c-4.997,0-9.052-4.059-9.052-9.052
		c0-4.978,4.055-9.052,9.052-9.052c4.99,0,9.045,4.074,9.045,9.052C273.351,203.185,269.296,207.244,264.306,207.244z"/>
</g>
</svg>
