<svg xmlns="http://www.w3.org/2000/svg" viewBox="0 0 500 500"><defs><style>.cls-1{isolation:isolate;}.cls-2{fill:#df1e32;}.cls-3{opacity:0.49;mix-blend-mode:overlay;}.cls-4{fill:#010101;}.cls-5{fill:#2baae2;}.cls-6{fill:#fff;}.cls-7{fill:#676767;}.cls-8{fill:#c2c1c1;}.cls-9{fill:#f4f4f4;}.cls-10{opacity:0.53;}.cls-11{fill:#a81e26;}.cls-12{fill:none;stroke:#a81e26;}.cls-12,.cls-13,.cls-14,.cls-15{stroke-miterlimit:10;}.cls-13{fill:#f9ba17;}.cls-13,.cls-14,.cls-15{stroke:#050606;}.cls-14{fill:#9f9e9e;}.cls-15{fill:#d8dadb;}.cls-16{fill:#fdfefe;}.cls-17{fill:#231f20;}.cls-18{fill:#fcd029;}.cls-19{fill:#fbd12b;}.cls-20{fill:#fbd12e;}.cls-21{fill:#fbd129;}.cls-22{fill:#fbd029;}</style></defs><g class="cls-1"><g id="Layer_1" data-name="Layer 1"><path class="cls-2" d="M504.9,254a250,250,0,0,1-250,250C139.37,504,42.15,425.68,13.48,319.21A250.09,250.09,0,0,1,4.9,254C4.9,116,116.82,4,254.9,4S504.9,116,504.9,254Z" transform="translate(-4.9 -4.04)"/><g class="cls-3"><polygon class="cls-4" points="251.5 24.61 316.16 73.35 397.24 79.81 415.15 158.41 473.34 215.61 435.54 287.24 443.5 368.81 368.88 398.66 322.13 465.82 245.52 441.44 166.93 463.33 124.16 394.19 49.55 360.36 61.48 280.77 26.66 206.66 86.86 152.93 108.24 73.85 188.32 70.86 251.5 24.61"/><path class="cls-5" d="M394.66,156.67l-12.94-56.38-59-4s-18.82,39.45,8.76,62.6S394.66,156.67,394.66,156.67Z" transform="translate(-4.9 -4.04)"/><path class="cls-5" d="M421.65,268,448,216.48l-42.62-41s-39.77,18.14-33.53,53.59S421.65,268,421.65,268Z" transform="translate(-4.9 -4.04)"/><path class="cls-5" d="M370.77,370.6l53.28-22.52-6.29-58.8s-42.11-11.69-60.13,19.49S370.77,370.6,370.77,370.6Z" transform="translate(-4.9 -4.04)"/><path class="cls-5" d="M265.82,416.49l55.3,17,33-49.08s-24.75-36-58.59-23.73S265.82,416.49,265.82,416.49Z" transform="translate(-4.9 -4.04)"/><path class="cls-5" d="M155.94,384.16l31.42,48.58,56.82-16.39s4.21-43.51-29.61-55.84S155.94,384.16,155.94,384.16Z" transform="translate(-4.9 -4.04)"/><path class="cls-5" d="M92.56,288.77l-7.17,57.4,54.06,24s31.19-30.62,13.22-61.81S92.56,288.77,92.56,288.77Z" transform="translate(-4.9 -4.04)"/><path class="cls-5" d="M105.34,174.94,62.94,214.3l26,53.12s43.58-3.4,49.86-38.85S105.34,174.94,105.34,174.94Z" transform="translate(-4.9 -4.04)"/><path class="cls-5" d="M188.3,96l-57.78,2.9-14.24,57.39s35.57,25.41,63.18,2.3S188.3,96,188.3,96Z" transform="translate(-4.9 -4.04)"/><path class="cls-6" d="M394.66,156.67l-12.94-56.38-59-4s-18.82,39.45,8.76,62.6S394.66,156.67,394.66,156.67Z" transform="translate(-4.9 -4.04)"/><path class="cls-6" d="M421.65,268,448,216.48l-42.62-41s-39.77,18.14-33.53,53.59S421.65,268,421.65,268Z" transform="translate(-4.9 -4.04)"/><path class="cls-6" d="M370.77,370.6l53.28-22.52-6.29-58.8s-42.11-11.69-60.13,19.49S370.77,370.6,370.77,370.6Z" transform="translate(-4.9 -4.04)"/><path class="cls-6" d="M265.82,416.49l55.3,17,33-49.08s-24.75-36-58.59-23.73S265.82,416.49,265.82,416.49Z" transform="translate(-4.9 -4.04)"/><path class="cls-6" d="M155.94,384.16l31.42,48.58,56.82-16.39s4.21-43.51-29.61-55.84S155.94,384.16,155.94,384.16Z" transform="translate(-4.9 -4.04)"/><path class="cls-6" d="M92.56,288.77l-7.17,57.4,54.06,24s31.19-30.62,13.22-61.81S92.56,288.77,92.56,288.77Z" transform="translate(-4.9 -4.04)"/><path class="cls-6" d="M105.34,174.94,62.94,214.3l26,53.12s43.58-3.4,49.86-38.85S105.34,174.94,105.34,174.94Z" transform="translate(-4.9 -4.04)"/><path class="cls-6" d="M188.3,96l-57.78,2.9-14.24,57.39s35.57,25.41,63.18,2.3S188.3,96,188.3,96Z" transform="translate(-4.9 -4.04)"/><path class="cls-7" d="M316.08,186.74c0,.51,0,.79,0,.79A4.14,4.14,0,0,0,316.08,186.74Z" transform="translate(-4.9 -4.04)"/><path class="cls-7" d="M340.58,239.49l-.49.63A4.85,4.85,0,0,0,340.58,239.49Z" transform="translate(-4.9 -4.04)"/><path class="cls-7" d="M370.29,273.51s-6.19-16.42-27.41-37.28a121.37,121.37,0,0,0,17.84-42.56s-15.31-8.59-45-10.91A121.6,121.6,0,0,0,302,138.7s-17.12,3.24-41.18,20.38a121.54,121.54,0,0,0-38.48-24.91s-11.17,13.53-18.73,42.3a121.8,121.8,0,0,0-45.81,5.66s.15,17.55,12.87,44.45a121.61,121.61,0,0,0-31.43,33.8s11.4,13.34,38.44,25.75a121.53,121.53,0,0,0-2.33,46.09s17.32,2.89,46-5A121.77,121.77,0,0,0,249.26,364s15.11-8.92,32-33.42a121.7,121.7,0,0,0,45,10.23s5.83-16.56,3-46.17A121.65,121.65,0,0,0,370.29,273.51Zm-66.47,35.86s-12.28,15.44-21.12,19.06l1-1.49a12.2,12.2,0,0,1-4.5,2.23,4.65,4.65,0,0,1-1.55-.31l1,.48c-4.78,1.29-13.2,1.65-26.32-3.85,0,0-19.34,3.93-28.43,1,.57-.16,1.14-.32,1.72-.5a12.15,12.15,0,0,1-4.89-1.18,5,5,0,0,1-1-1.23c.12.26.25.59.43,1-4.5-2.09-11.17-7.23-17.68-19.87,0,0-17.32-9.43-22.41-17.51l1.63.72a12.22,12.22,0,0,1-3-4.05,4.4,4.4,0,0,1,.05-1.58c-.09.28-.2.62-.32,1-2.08-4.49-3.89-12.73-.74-26.59,0,0-7.2-18.36-5.9-27.82l.79,1.6a12.15,12.15,0,0,1,.33-5,4.55,4.55,0,0,1,1-1.18l-.9.6c1.29-4.79,5.2-12.25,16.53-20.84,0,0,6.31-18.7,13.38-25.1-.14.57-.28,1.14-.42,1.73a12.16,12.16,0,0,1,3.47-3.63,4.7,4.7,0,0,1,1.57-.22l-1.08-.13c4.06-2.84,11.86-6,26.06-5.32,0,0,16.22-9.87,25.85-10.57l-1.39,1a12.83,12.83,0,0,1,5.48-.54,4.53,4.53,0,0,1,1.33.83c-.18-.21-.43-.46-.72-.77,5,.54,12.83,3.2,22.95,12.5,0,0,19.52,2.88,27.09,8.71l-1.78-.11a12.09,12.09,0,0,1,4.18,2.77,4.36,4.36,0,0,1,.5,1.5c0-.29,0-.65-.07-1.09,3.52,3.5,8.05,10.61,9.88,24.7,0,0,13.1,14.76,15.13,24.09l-1.29-1.23a12.28,12.28,0,0,1,1.43,4.81,4.75,4.75,0,0,1-.58,1.47l.64-.87c.44,4.94-.66,13.29-8.33,25.26,0,0,.53,19.73-3.91,28.18-.06-.59-.12-1.18-.2-1.78a12,12,0,0,1-2,4.6,4.6,4.6,0,0,1-1.39.75l1.05-.25C323.61,299.44,317.39,305.14,303.82,309.37Z" transform="translate(-4.9 -4.04)"/><path class="cls-7" d="M325.4,295.63l-.78.18A4,4,0,0,0,325.4,295.63Z" transform="translate(-4.9 -4.04)"/><path class="cls-7" d="M277.65,328.86l-.7-.37A4.28,4.28,0,0,0,277.65,328.86Z" transform="translate(-4.9 -4.04)"/><path class="cls-7" d="M219.43,322.85a3.7,3.7,0,0,0,.3.74C219.53,323.12,219.43,322.85,219.43,322.85Z" transform="translate(-4.9 -4.04)"/><path class="cls-7" d="M178.78,282.28c.15-.49.24-.75.24-.75A3.44,3.44,0,0,0,178.78,282.28Z" transform="translate(-4.9 -4.04)"/><path class="cls-7" d="M174,224.32l.68-.42A3.88,3.88,0,0,0,174,224.32Z" transform="translate(-4.9 -4.04)"/><path class="cls-7" d="M207.61,176.86l.77.1A4,4,0,0,0,207.61,176.86Z" transform="translate(-4.9 -4.04)"/><path class="cls-7" d="M263.86,162.14c.36.38.54.59.54.59A3.78,3.78,0,0,0,263.86,162.14Z" transform="translate(-4.9 -4.04)"/><path class="cls-8" d="M286.9,180.3l.27.64A3.23,3.23,0,0,0,286.9,180.3Z" transform="translate(-4.9 -4.04)"/><path class="cls-8" d="M322.49,216.17l-.2.65A3,3,0,0,0,322.49,216.17Z" transform="translate(-4.9 -4.04)"/><path class="cls-8" d="M356.81,235.19s-9.9-11.59-33.39-22.36a105.65,105.65,0,0,0,2-40s-15-2.5-39.95,4.37a105.72,105.72,0,0,0-24.23-31.95s-13,7.7-27.62,28.81a105.56,105.56,0,0,0-38.79-9s-5.14,14.35-2.82,40.1a105.64,105.64,0,0,0-35.74,18.14s5.29,14.3,23.63,32.52a105.63,105.63,0,0,0-15.7,36.88s13.26,7.54,39,9.69a105.6,105.6,0,0,0,11.71,38.34s15-2.76,36.1-17.68a105.43,105.43,0,0,0,33.63,21.82s9.71-11.75,16.27-36.75a105.57,105.57,0,0,0,39.78-4.93s-.13-15.25-11.19-38.6A105.51,105.51,0,0,0,356.81,235.19ZM313.1,284.11s-5.47,16.24-11.62,21.8c.13-.5.25-1,.37-1.5a10.59,10.59,0,0,1-3,3.15,4.31,4.31,0,0,1-1.36.2l.93.1c-3.52,2.47-10.3,5.25-22.63,4.63,0,0-14.64,8.92-22.93,9.22l1.25-.91a10.69,10.69,0,0,1-4.33.47,4.07,4.07,0,0,1-1.17-.71l.64.67c-4.29-.38-11.25-2.61-20.3-11,0,0-16.95-2.59-23.49-7.69.52,0-2.46-3.07-2.45-2.69-3-3-6.94-9.24-8.46-21.5,0,0-11.3-12.87-13-21,.37.36.48-15.17,7.2-25.54,0,0-.37-17.13,3.52-24.45.05.51.1,1,.17,1.54a10.42,10.42,0,0,1,1.76-4,3.92,3.92,0,0,1,1.21-.64l-.92.21c2.48-3.52,7.91-8.43,19.73-12,0,0,10.33-12.86,18-16.27l-.83,1.23a11,11,0,0,1,4.31-2.05,4,4,0,0,1,1.34.28l-.82-.42c4.22-1,11.43-1.17,22.44,3.44,0,0,16.79-3.41,24.7-.88l-1.5.43a10.68,10.68,0,0,1,4.25,1,3.72,3.72,0,0,1,.84,1.07c-.09-.22-.21-.51-.37-.86,3.91,1.82,9.71,6.28,15.36,17.26,0,0,15.06,8.19,19.48,15.21l-1.42-.63a10.75,10.75,0,0,1,2.59,3.52,3.92,3.92,0,0,1-.05,1.37q.12-.36.27-.9c1.82,3.9,3.39,11,.66,23.09,0,0,6.26,16,5.13,24.18-.23-.47-.45-.93-.69-1.4a10.52,10.52,0,0,1-.28,4.36,3.86,3.86,0,0,1-.91,1l.79-.52C326.34,270.16,322.94,276.64,313.1,284.11Z" transform="translate(-4.9 -4.04)"/><path class="cls-8" d="M326.67,266.52l-.58.37A3.82,3.82,0,0,0,326.67,266.52Z" transform="translate(-4.9 -4.04)"/><path class="cls-8" d="M297.48,307.76l-.68-.1A3.19,3.19,0,0,0,297.48,307.76Z" transform="translate(-4.9 -4.04)"/><path class="cls-8" d="M248.14,320a4.62,4.62,0,0,0,.46.52Z" transform="translate(-4.9 -4.04)"/><path class="cls-8" d="M203,298.91c0-.45,0-.69,0-.69A4,4,0,0,0,203,298.91Z" transform="translate(-4.9 -4.04)"/><path class="cls-8" d="M181.92,253l.42-.55A3.64,3.64,0,0,0,181.92,253Z" transform="translate(-4.9 -4.04)"/><path class="cls-8" d="M195.37,204.27c.43-.1.68-.14.68-.14A3.16,3.16,0,0,0,195.37,204.27Z" transform="translate(-4.9 -4.04)"/><path class="cls-8" d="M237,175.63l.61.32A2.73,2.73,0,0,0,237,175.63Z" transform="translate(-4.9 -4.04)"/><path class="cls-9" d="M232.92,189.5s16.1,28.63,21.74,34.27l1.15-49.3C243.49,178.21,232.92,189.5,232.92,189.5Z" transform="translate(-4.9 -4.04)"/><path class="cls-9" d="M255.81,174.47l-1.05,49.34c5.9-5.38,23.31-33.23,23.31-33.23S268,178.78,255.81,174.47Z" transform="translate(-4.9 -4.04)"/><path class="cls-9" d="M274.88,188.11s-6.09,32.28-5.41,40.22l32.6-37C290.23,186.26,274.88,188.11,274.88,188.11Z" transform="translate(-4.9 -4.04)"/><path class="cls-9" d="M302.07,191.33l-32.54,37.09c8-.32,39.22-10.44,39.22-10.44S308.59,202.44,302.07,191.33Z" transform="translate(-4.9 -4.04)"/><path class="cls-9" d="M307.9,214s-25.43,20.8-30,27.32L326.65,234C320.84,222.5,307.9,214,307.9,214Z" transform="translate(-4.9 -4.04)"/><path class="cls-9" d="M326.65,234l-48.79,7.47c6.31,4.87,36.75,17.24,36.75,17.24S324.49,246.69,326.65,234Z" transform="translate(-4.9 -4.04)"/><path class="cls-9" d="M316.5,255.11s-32.85-.43-40.56,1.62L318,282.46C321,269.92,316.5,255.11,316.5,255.11Z" transform="translate(-4.9 -4.04)"/><path class="cls-9" d="M318,282.46,275.86,256.8c1.69,7.79,17,36.83,17,36.83S308.18,290.8,318,282.46Z" transform="translate(-4.9 -4.04)"/><path class="cls-9" d="M296.65,292.11s-24.87-21.47-32.08-24.86L280.22,314C290.54,306.32,296.65,292.11,296.65,292.11Z" transform="translate(-4.9 -4.04)"/><path class="cls-9" d="M280.22,314l-15.76-46.76c-3.72,7-10.66,39.16-10.66,39.16S267.33,314.08,280.22,314Z" transform="translate(-4.9 -4.04)"/><path class="cls-9" d="M257.65,307.66s-5.22-32.43-8.56-39.67L231,313.86C243.84,314.61,257.65,307.66,257.65,307.66Z" transform="translate(-4.9 -4.04)"/><path class="cls-9" d="M231,313.86l18-45.94c-7.39,3-33.35,23.13-33.35,23.13S221.07,305.62,231,313.86Z" transform="translate(-4.9 -4.04)"/><path class="cls-9" d="M217.79,294.48s16.87-28.19,19-35.88l-43.38,23.46C202.75,290.9,217.79,294.48,217.79,294.48Z" transform="translate(-4.9 -4.04)"/><path class="cls-9" d="M193.38,282.06l43.36-23.57c-7.59-2.45-40.41-3.75-40.41-3.75S191.1,269.38,193.38,282.06Z" transform="translate(-4.9 -4.04)"/><path class="cls-9" d="M195.77,258.74s31-10.73,37.6-15.27l-48.31-9.94C186.54,246.33,195.77,258.74,195.77,258.74Z" transform="translate(-4.9 -4.04)"/><path class="cls-9" d="M185.06,233.53l48.36,9.85c-4.23-6.76-28.53-28.88-28.53-28.88S191.48,222.36,185.06,233.53Z" transform="translate(-4.9 -4.04)"/><path class="cls-9" d="M201.88,217.21s30.68,11.76,38.62,12.5L209.91,191C202.81,201.78,201.88,217.21,201.88,217.21Z" transform="translate(-4.9 -4.04)"/><path class="cls-9" d="M209.91,191l30.69,38.65c1.11-7.89-3.27-40.46-3.27-40.46S222,186.59,209.91,191Z" transform="translate(-4.9 -4.04)"/><path class="cls-6" d="M268.31,244.25a12.46,12.46,0,1,1-12.46-12.47A12.47,12.47,0,0,1,268.31,244.25Z" transform="translate(-4.9 -4.04)"/><path class="cls-6" d="M302.82,88.42,256.65,53.55,208.89,88.42s11,42.32,47,42.32S302.82,88.42,302.82,88.42Z" transform="translate(-4.9 -4.04)"/></g><g class="cls-10"><path class="cls-11" d="M141.6,355.13c-5.15,0-10.31.12-15.46,0-7.17-.11-17.1,4.24-14.1-10.81.6-3-7.33-7.62-11.27-11.56-4.93-4.93-9.8-9.92-14.71-14.88v-22.3c20.72-2.05,18.2-22.45,27.94-34.85l22.83,3.34,8.65-.2c.41-2,1.78-5.21,1.09-5.73-9-6.8-5.26-14.32-1.72-21.92l2.88-4.11a3.66,3.66,0,0,0,2.54-.71l5.95-2.16c0-20.69.05-41.37,0-62.05,0-13.8-.25-27.6-.38-41.4l6.62-5.16,30.67-7.17,8.88-.73c9.9,2.59,12.67-4.28,15.8-11.4s4-16.9,15.35-16.8l14.15-6.42,26,10.71,2.63,1.61q2.81,7.78,5.6,15.58l6.93.31L322,91.8q4.56,15.74,9.11,31.47c-1.22,2.13-2.33,4.33-3.69,6.35-1.66,2.47-5.29,5.09-4.94,7.09a16.49,16.49,0,0,0,5.84,9.56c2.8,2.08,7.12,2.1,10.77,3,.83,4,.35,9.23,2.72,11.9,12.76,14.36,25.6,28.8,39.88,41.58,3.91,3.5,12.89,1.36,21.3,1.92-1.87,13.5-3.79,27.34-5.71,41.17q2.47,7,5,14l8.2,11.31-9.59,11.89c-6.66,7.62-17.12,14.24-6.9,26.29.69,1.42,1.39,2.85,2.08,4.28,4.63,10.87,9.7,21.59,13.59,32.72,1.14,3.26-1.05,7.69-1.71,11.58-10.87,6.12-20.7,15.68-35.15,9.14-2.06-.93-6.39,1.29-8.73,3.2-7.68,6.28-14.94,13.08-22.37,19.7,15.69,16.21,12,29.37-9,31.22-1.71.15-3.31,1.59-5,2.43-23.91,12.37-38.35.06-50.48-19.07-5.74-9.06-12.15-17.7-18.25-26.53.47-1.53.93-3.06,1.4-4.59,0,0-.19-.27-.2-.27l-.72-7.7L250.48,358l-7.39-6.12-7.44.27L201.73,338l-8.13-5.05-1.89,2.62,6.23,5.7c-1,2.87-1.31,7.6-3.12,8.26-5,1.84-10.62,2-16,2.8Z" transform="translate(-4.9 -4.04)"/><circle class="cls-12" cx="247.24" cy="245.21" r="223.34"/></g><ellipse class="cls-13" cx="249.2" cy="243.49" rx="54.22" ry="61.47"/><path class="cls-14" d="M264.47,363.31c-20.7,5.29-35.07-2.16-41.62-21.56l60.07-.25C280,351.53,273.49,358.46,264.47,363.31Z" transform="translate(-4.9 -4.04)"/><path class="cls-15" d="M282.92,341.5l-60.07.25c-7.95-3.63-8.28-5.28-2.07-10.45l63.81,0C290.48,336.29,290.2,338,282.92,341.5Z" transform="translate(-4.9 -4.04)"/><path class="cls-15" d="M221,326.6c-6.36-3.48-5.91-7,0-10.42l63.39-.12a2.73,2.73,0,0,0,1.46.27c3.55,3.85,4.43,7.39-1.18,10.19Z" transform="translate(-4.9 -4.04)"/><path class="cls-14" d="M221,326.6l63.67-.08c0,1.58-.05,3.16-.08,4.74l-63.81,0C220.85,329.73,220.92,328.17,221,326.6Z" transform="translate(-4.9 -4.04)"/><path class="cls-15" d="M287.59,310.83l-3.32,1.82-63,0c-6.45-3.94-6.51-7.84.05-11.72h62.86Z" transform="translate(-4.9 -4.04)"/><path class="cls-14" d="M221.31,312.67l63,0,.12,3.41-63.39.12C221.1,315,221.21,313.84,221.31,312.67Z" transform="translate(-4.9 -4.04)"/><path class="cls-14" d="M284.22,301H221.36l.09-3.48,62.65,0c.18.55.37,1.1.56,1.65C284.51,299.75,284.37,300.35,284.22,301Z" transform="translate(-4.9 -4.04)"/><path class="cls-16" d="M262,348.41a7.84,7.84,0,0,1-.27,3.15,9.11,9.11,0,0,1-1.36,2.91,8.79,8.79,0,0,1-2.27,2.28,8.25,8.25,0,0,1-2.88,1.31,24.17,24.17,0,0,0,2.39-1.92,12.54,12.54,0,0,0,1.94-2.24A16.86,16.86,0,0,0,262,348.41Z" transform="translate(-4.9 -4.04)"/><path class="cls-16" d="M266.64,344.3a17,17,0,0,1-.8,5.73,18.78,18.78,0,0,1-2.55,5.25,17.5,17.5,0,0,1-4.07,4.21,17,17,0,0,1-2.46,1.55,10.47,10.47,0,0,1-1.32.6c-.45.19-.9.36-1.34.53a30.71,30.71,0,0,0,4.63-3.29,20.53,20.53,0,0,0,3.73-4.17,23.24,23.24,0,0,0,2.65-4.94A27.37,27.37,0,0,0,266.64,344.3Z" transform="translate(-4.9 -4.04)"/><path class="cls-17" d="M227,262.15a6.76,6.76,0,0,1-2.89-2.93,9.85,9.85,0,0,1-1-4.62V236.93a9.91,9.91,0,0,1,1-4.64,6.74,6.74,0,0,1,2.89-2.92,11,11,0,0,1,9.14,0,6.76,6.76,0,0,1,2.9,2.92,10,10,0,0,1,1,4.64V254.6a10,10,0,0,1-1,4.62,6.78,6.78,0,0,1-2.9,2.93,10.84,10.84,0,0,1-9.14,0Zm6.74-3.81a3.17,3.17,0,0,0,1.37-1.39,4.84,4.84,0,0,0,.47-2.21v-18a4.8,4.8,0,0,0-.47-2.2,3.2,3.2,0,0,0-1.37-1.4,5.15,5.15,0,0,0-4.34,0,3.2,3.2,0,0,0-1.37,1.4,4.8,4.8,0,0,0-.47,2.2v18A4.84,4.84,0,0,0,228,257a3.17,3.17,0,0,0,1.37,1.39,5.15,5.15,0,0,0,4.34,0Zm-3.11-1.75,2.42-3,10.36,7.29L241,263.91Z" transform="translate(-4.9 -4.04)"/><path class="cls-17" d="M248.34,262.23a6.07,6.07,0,0,1-2.63-2.72,9.78,9.78,0,0,1-.89-4.37V228.73h4.46v26.6a3.67,3.67,0,0,0,.84,2.59,3.19,3.19,0,0,0,2.44.9,3.24,3.24,0,0,0,2.47-.9,3.63,3.63,0,0,0,.86-2.59v-26.6h4.45v26.41a9.64,9.64,0,0,1-.9,4.37,6.09,6.09,0,0,1-2.64,2.72,10.08,10.08,0,0,1-8.46,0Z" transform="translate(-4.9 -4.04)"/><path class="cls-17" d="M268.73,262.81h-4.45V228.73h4.45Z" transform="translate(-4.9 -4.04)"/><path class="cls-17" d="M286.82,232.52l-9.16,26.07h9.4v4.22H272.9V259L282.18,233h-8.86v-4.22h13.5Z" transform="translate(-4.9 -4.04)"/><path class="cls-18" d="M382.55,224.62c-19.11,10.37-39,18.81-60.46,22.8C341,236.43,361.32,229.4,382.55,224.62Z" transform="translate(-4.9 -4.04)"/><path class="cls-19" d="M127.24,225.33A148.55,148.55,0,0,1,177,248.7,148.27,148.27,0,0,1,127.24,225.33Z" transform="translate(-4.9 -4.04)"/><path class="cls-20" d="M192.73,189c-13.6-10.94-25.32-23.33-34.22-38.37C165.7,153.19,190.55,181,192.73,189Z" transform="translate(-4.9 -4.04)"/><path class="cls-21" d="M353.89,154.71c-7.76,15-17.69,28.12-30.82,38.69A125.49,125.49,0,0,1,353.89,154.71Z" transform="translate(-4.9 -4.04)"/><path class="cls-22" d="M343.7,209.59c13.75-11.49,31.53-22.5,38.75-24.08C380,191.62,350.78,210,343.7,209.59Z" transform="translate(-4.9 -4.04)"/><path class="cls-21" d="M169.32,213.44c-11.95-5.5-21.26-14-29-24.14C146.5,189.64,164.3,204.3,169.32,213.44Z" transform="translate(-4.9 -4.04)"/><path class="cls-19" d="M223.86,179.22a63.85,63.85,0,0,1-8.76-34.4A61.66,61.66,0,0,1,223.86,179.22Z" transform="translate(-4.9 -4.04)"/><path class="cls-21" d="M286.5,173.87a52.84,52.84,0,0,1,9.74-30.76C297.63,149.84,293.6,162.72,286.5,173.87Z" transform="translate(-4.9 -4.04)"/><path class="cls-18" d="M254.82,146.28c3.25,10.89,3.48,21.09,0,32.06A50.88,50.88,0,0,1,254.82,146.28Z" transform="translate(-4.9 -4.04)"/><path class="cls-19" d="M334.66,267c8.58-4.05,16.7-5,25.63-2.23C352,269.15,343.87,269.58,334.66,267Z" transform="translate(-4.9 -4.04)"/><path class="cls-19" d="M164.3,263.72c-9,1.44-15.61-.09-24.58-5.69C148.76,257,156.8,258.12,164.3,263.72Z" transform="translate(-4.9 -4.04)"/></g></g></svg>