<?xml version="1.0" encoding="utf-8"?>
<!-- Generator: Adobe Illustrator 16.0.0, SVG Export Plug-In . SVG Version: 6.00 Build 0)  -->
<!DOCTYPE svg PUBLIC "-//W3C//DTD SVG 1.1//EN" "http://www.w3.org/Graphics/SVG/1.1/DTD/svg11.dtd">
<svg version="1.1" id="Capa_1" xmlns="http://www.w3.org/2000/svg" xmlns:xlink="http://www.w3.org/1999/xlink" x="0px" y="0px"
	 width="710.59px" height="710.597px" viewBox="0 0 710.59 710.597" enable-background="new 0 0 710.59 710.597"
	 xml:space="preserve">
<path display="none" fill="#2E1901" d="M355.295,27.906c-180.813,0-327.39,146.579-327.39,327.393
	c0,180.814,146.577,327.392,327.39,327.392c180.812,0,327.39-146.578,327.39-327.392C682.685,174.485,536.107,27.906,355.295,27.906
	z M552.619,350.559l-5.142,5.652c-7.339,8.078-17.029,11.328-21.643,7.277c-4.624-4.064-8.37-7.348-8.37-7.348v175.348
	c0,10.912-8.844,19.744-19.748,19.744h-74.984c-10.904,0-18.706-8.832-18.551-19.736V407.064h-90.25v124.432
	c0,10.914-8.843,19.748-19.748,19.748h-70.758c-10.904,0-19.746-8.834-19.746-19.748v-177.86l-13.566,12.149
	c-7.487,6.707-19.691,5.773-27.242-2.086l-4.551-4.74c-7.559-7.858-7.164-20.212,0.873-27.582l181.523-166.395
	c8.039-7.37,21.204-7.519,29.413-0.339l180.907,158.294C559.249,330.119,559.957,342.488,552.619,350.559z"/>
<path display="none" fill="#2E1901" d="M355.296,27.908c-180.813,0-327.39,146.578-327.39,327.392
	c0,180.812,146.577,327.39,327.39,327.39c180.812,0,327.388-146.578,327.388-327.39C682.684,174.486,536.11,27.908,355.296,27.908z
	 M250.277,308.42c0.681-12.399,7.436-22.11,15.096-21.687c7.656,0.42,13.335,10.815,12.652,23.201
	c-0.667,12.399-7.437,22.109-15.094,21.687C255.257,331.208,249.594,320.816,250.277,308.42z M218.117,317.399
	c0.539-10.073,6.023-17.961,12.246-17.627c6.206,0.346,10.792,8.789,10.253,18.847c-0.554,10.074-6.023,17.949-12.246,17.615
	C222.164,335.901,217.567,327.46,218.117,317.399z M205.644,318.192c4.599-0.319,8.75,5.449,9.274,12.888
	c0.528,7.437-2.774,13.734-7.361,14.054c-4.588,0.319-8.748-5.446-9.275-12.887C197.754,324.803,201.056,318.512,205.644,318.192z
	 M190.064,338.611c3.674-0.269,6.986,4.33,7.409,10.277c0.424,5.934-2.21,10.971-5.883,11.229c-3.66,0.26-6.976-4.345-7.398-10.277
	C183.768,343.906,186.404,338.869,190.064,338.611z M274.062,498.734c5.486,7.541,38.222,40.678,28.482,73.396
	c-4.938,16.613-16.074,24.035-30.644,27.07c-48.434,10.063-53.56-28.377-54.062-45.439c-0.463-16.008-2.841-31.541-9.432-46.213
	c-16.201-36.77-40.7-94.363-16.637-122.137c35.471-40.931,119.926-38.093,125.67-5.086c4.769,27.494-24.088,42.873-37.878,57.125
	C263.606,453.945,260.894,480.568,274.062,498.734z M328.914,310.23c-2.855,17.705-14.029,30.642-24.964,28.88
	c-10.945-1.759-17.495-17.536-14.657-35.253c2.853-17.704,14.028-30.643,24.963-28.879
	C325.192,276.736,331.755,292.515,328.914,310.23z M513.071,222.826c0.42-5.933,3.75-10.535,7.428-10.276
	c3.676,0.269,6.307,5.305,5.881,11.228c-0.414,5.933-3.736,10.537-7.412,10.278C515.303,233.787,512.66,228.764,513.071,222.826z
	 M495.66,205.045c0.529-7.437,4.678-13.207,9.289-12.873c4.588,0.324,7.902,6.616,7.375,14.054
	c-0.527,7.438-4.689,13.208-9.289,12.874C498.436,218.781,495.133,212.484,495.66,205.045z M480.233,173.724
	c6.232-0.348,11.717,7.553,12.258,17.626c0.553,10.058-4.049,18.501-10.281,18.836c-6.229,0.333-11.691-7.542-12.244-17.615
	S474,174.069,480.233,173.724z M445.227,160.707c7.656-0.407,14.41,9.306,15.094,21.701c0.666,12.399-4.986,22.778-12.641,23.202
	c-7.674,0.412-14.414-9.302-15.098-21.701S437.578,161.13,445.227,160.707z M396.291,148.929
	c10.959-1.758,22.131,11.179,24.971,28.88c2.84,17.705-3.713,33.494-14.654,35.251c-10.961,1.762-22.127-11.176-24.977-28.878
	C378.805,166.475,385.356,150.689,396.291,148.929z M502.188,381.517c-6.592,14.66-8.982,30.219-9.428,46.227
	c-0.504,17.059-5.615,55.496-54.064,45.416c-14.568-3.021-25.709-10.459-30.656-27.059c-9.736-32.723,23.012-65.855,28.498-73.396
	c13.158-18.165,10.443-44.798-5.512-61.282c-13.801-14.259-42.654-29.638-37.887-57.131c5.746-33.007,90.203-35.859,125.691,5.087
	C542.887,287.156,518.367,344.737,502.188,381.517z"/>
<path display="none" fill="#2E1901" d="M355.295,27.906c-180.812,0-327.39,146.578-327.39,327.395
	c0,180.813,146.578,327.391,327.39,327.391c180.812,0,327.39-146.578,327.39-327.391C682.685,174.486,536.107,27.906,355.295,27.906
	z M169.864,217.908c5.979-7.491,14.515-11.239,25.618-11.239H513.73c9.37,0,17.479,3.387,24.328,10.159
	c6.841,6.779,10.271,14.92,10.271,24.435c0,11.387-3.537,22.27-10.588,32.644c-7.064,10.375-15.855,19.242-26.377,26.593
	c-34.981,24.278-61.379,42.61-79.303,55.064c-9.852,6.839-17.18,11.933-21.881,15.204c-0.697,0.49-1.787,1.264-3.233,2.303
	c-1.556,1.115-3.528,2.535-5.957,4.293c-4.685,3.389-8.578,6.125-11.675,8.217c-3.106,2.088-6.85,4.432-11.247,7.027
	s-8.539,4.541-12.43,5.836c-3.894,1.295-7.496,1.947-10.811,1.947h-0.216h-0.213c-3.316,0-6.918-0.652-10.809-1.947
	c-3.893-1.295-8.038-3.244-12.435-5.836c-4.397-2.596-8.149-4.934-11.245-7.027c-3.096-2.092-6.988-4.83-11.673-8.217
	c-2.434-1.758-4.405-3.178-5.962-4.299c-1.445-1.031-2.536-1.811-3.227-2.297c-6.036-4.246-13.347-9.359-21.824-15.266
	c-9.943-6.935-21.517-14.972-34.823-24.193c-24.649-17.078-39.425-27.349-44.324-30.81c-8.938-6.055-17.369-14.375-25.295-24.97
	c-7.926-10.599-11.89-20.434-11.89-29.516C160.891,234.774,163.878,225.402,169.864,217.908z M547.374,279.411v202.122
	l-117.04-117.047c24.943-17.422,55.234-38.187,90.873-62.309C531.149,295.373,539.87,287.789,547.374,279.411z M281.171,366.097
	l-117.04,117.045v-202.12c7.504,8.379,16.227,15.963,26.167,22.767C225.936,327.91,256.228,348.675,281.171,366.097z
	 M525.565,503.929H186.781c-9.269,0-17.308-3.059-24.136-9.104l116.87-116.889c2.927,2.1,5.63,4.061,8.069,5.85
	c8.746,6.439,15.84,11.467,21.289,15.072c5.444,3.609,12.695,7.289,21.751,11.049c9.056,3.76,17.491,5.635,25.317,5.635h0.229h0.229
	c7.827,0,16.265-1.875,25.321-5.635c9.048-3.76,16.298-7.439,21.747-11.049c5.451-3.605,12.548-8.633,21.292-15.072
	c2.568-1.857,5.284-3.807,8.088-5.818L549.7,494.824C542.869,500.871,534.836,503.929,525.565,503.929z"/>
<g display="none">
	<path display="inline" fill="#2E1901" d="M355.299,27.906c-180.812,0-327.393,146.577-327.393,327.392
		c0,180.817,146.581,327.394,327.393,327.394c180.811,0,327.393-146.576,327.393-327.393S536.11,27.906,355.299,27.906z
		 M596.021,437.602c-30.841,17.102-63.833,24.394-98.916,24.734c-9.309,0.089-19.305,2.387-27.75,6.315
		c-77.503,36.094-154.483,35.642-231.545-1.302c-6.699-3.215-14.753-5.159-22.156-5.102c-35.582,0.28-69.105-6.856-100.611-23.849
		c-8.709-4.697-10.429-9.652-7.166-18.706c11.164-30.994,31.964-52.418,62.417-64.464c14.566-5.755,16.648-12.909,6.747-25.877
		c-14.524-19.03-16.333-39.711-6.406-60.996c7.083-15.186,19.062-25.218,36.758-25.014c16.955,0.191,28.51,9.692,35.59,24.428
		c10.81,22.493,8.389,43.805-7.454,63.252c-10.04,12.334-8.434,17.492,6.896,21.851c5.162,1.469,11.417,2.263,14.977,5.668
		c21.269,20.301,40.276,2.664,58.221-4.824c8.783-3.662,6.092-17.021-1.114-25.42c-18.296-21.305-21.569-45.674-13.893-71.836
		c7.148-24.372,27.932-40.856,50.159-40.753c22.296,0.098,42.947,16.547,49.86,41.051c7.527,26.661,4.107,51.233-14.859,73.061
		c-4.387,5.055-5.047,13.342-6.984,18.89c17.755,7.331,32.457,13.803,47.514,19.311c3.232,1.178,8.008-0.513,11.62-1.988
		c10.391-4.231,20.288-9.81,30.877-13.399c12.875-4.363,15.339-10.139,6.378-20.468c-11.626-13.399-17.075-28.682-14.114-46.172
		c4.824-28.468,24.777-46.139,47.146-42.599c22.496,3.558,40.712,30.441,36.365,56.345c-1.719,10.236-6.502,20.565-12.157,29.393
		c-8.791,13.719-7.57,20.295,6.996,26.1c30.935,12.321,52.04,34.04,62.835,65.855C604.98,429.116,603.545,433.431,596.021,437.602z"
		/>
</g>
<path display="none" fill="#2E1901" d="M355.295,27.906c-180.813,0-327.39,146.58-327.39,327.393
	c0,180.812,146.577,327.392,327.39,327.392c180.812,0,327.39-146.58,327.39-327.392C682.685,174.484,536.106,27.906,355.295,27.906z
	 M438.593,548.451c-18.025,7.115-32.423,12.531-43.143,16.254c-10.733,3.734-23.204,5.592-37.414,5.592
	c-21.819,0-38.792-5.346-50.896-15.963c-12.106-10.66-18.16-24.168-18.16-40.555c0-6.342,0.441-12.867,1.354-19.516
	c0.921-6.654,2.385-14.15,4.39-22.529l22.525-79.725c2.004-7.635,3.706-14.869,5.071-21.709c1.384-6.801,2.051-13.055,2.051-18.684
	c0-10.181-2.108-17.303-6.305-21.307c-4.197-3.992-12.206-6.02-24.093-6.02c-5.823,0-11.808,0.933-17.909,2.736
	c-6.127,1.812-11.365,3.561-15.762,5.188l6.025-24.581c14.756-6.008,28.859-11.153,42.352-15.422
	c13.492-4.281,26.241-6.424,38.298-6.424c21.671,0,38.392,5.237,50.133,15.712c11.743,10.482,17.612,24.071,17.612,40.814
	c0,3.466-0.385,9.571-1.214,18.295c-0.809,8.744-2.315,16.756-4.512,24.043l-22.429,79.408c-1.839,6.377-3.493,13.668-4.93,21.873
	c-1.484,8.15-2.193,14.379-2.193,18.555c0,10.545,2.352,17.744,7.064,21.572c4.747,3.826,12.926,5.73,24.542,5.73
	c5.452,0,11.656-0.969,18.552-2.867c6.875-1.9,11.889-3.568,14.998-5.027L438.593,548.451z M434.596,225.883
	c-10.451,9.75-23.046,14.629-37.779,14.629c-14.778,0-27.402-4.879-37.976-14.629c-10.549-9.719-15.838-21.531-15.838-35.366
	c0-13.808,5.289-25.643,15.838-35.482c10.552-9.822,23.201-14.732,37.976-14.732c14.729,0,27.328,4.922,37.779,14.732
	c10.486,9.84,15.692,21.678,15.692,35.482C450.289,204.353,445.073,216.168,434.596,225.883z"/>
<g display="none">
	<path display="inline" fill="#2E1901" d="M355.295,27.906c-180.813,0-327.39,146.579-327.39,327.394
		c0,180.813,146.577,327.392,327.39,327.392c180.812,0,327.39-146.578,327.39-327.392
		C682.685,174.485,536.107,27.906,355.295,27.906z M574.987,497.308l-26.64,18.328l-28.235-5.471l-39.631,34.816l15.997,14.402
		l-2.644,20.074l-68.467,20.709l-56.329-66.973l5.075-21.42l-30.25-25.195l-15.513,5.732l-51.091-29.537l-4.377,6.383l13.816,11.977
		v6.449l-117.407,8.98l-6.186-6.182l5.137-10.273l-38.109-32.738l-1.396-35.463l18.779-2.707l19.581-45.033l42.316,10.15
		l7.681-10.115l-14.176-15.739l11.778-22.255l14.787-3.015l-4.528-145.077l0.501-1.546l5.154,3.041l10.392-14.428l11.173,7.168
		l5.042-9.105l47.312-2.832l17.167-38.418h13.788l9.44-11.562l48.237,20.183l4.031,21.385l7.138,3.576l51.73-25.17l13.207,53.473
		l-16.281-2.188l5.122,24.593l20.667,3.918l0.463,1.361l-5.843,5.53l38.46,44.509l5.563-2.097l23.759,31.135l27.408-6.265
		l-11.736,73.271l22.129,17.801l-32.295,41.359l35.164,77.738l-7.522,1.83L574.987,497.308z"/>
	<path display="inline" fill="#2E1901" d="M463.398,270.326c-5.559-41.675-37.004-76.542-77.926-86.223
		c-5.537-1.288-11.247-1.962-16.855-2.947c-4.965,0-9.954,0-14.906,0c-0.745,0.184-1.447,0.434-2.186,0.513
		c-12.418,1.093-24.216,4.371-35.371,9.879c-55.401,27.398-74.976,94.648-42.667,147.37c26.83,43.728,54.074,87.221,81.091,130.763
		c4.413,7.099,11.833,6.982,16.139-0.209c26.34-43.979,52.762-87.959,78.998-131.992
		C462.094,316.728,466.582,294.315,463.398,270.326z M361.073,331.941c-26.173-0.037-47.392-21.29-47.426-47.454
		c0-26.297,21.443-47.658,47.766-47.584c26.058,0.107,47.273,21.47,47.202,47.727C408.576,310.799,387.289,331.941,361.073,331.941z
		"/>
</g>
<g>
	<path fill-rule="evenodd" clip-rule="evenodd" fill="#2E1901" d="M28.656,380.585c0-16.681,0-33.362,0-50.043
		c0.934-3.532,2.335-7.013,2.737-10.607C46.724,182.424,143.504,71.14,277.48,37.702c17.811-4.447,36.132-6.85,54.216-10.2
		c16.681,0,33.363,0,50.043,0c6.779,1.184,13.534,2.544,20.344,3.521c184.657,26.515,310.309,205.37,273.409,389.229
		c-29.725,148.107-159.52,258.97-307.6,262.73C212.17,686.939,78.055,586.765,39.896,437.552
		C35.106,418.83,32.353,399.588,28.656,380.585z M259.742,201.578c-3.698-0.744-5.452-1.384-7.217-1.403
		c-11.577-0.125-23.17-0.396-34.741-0.079c-15.926,0.438-22.551,7.149-22.573,23.434c-0.117,100.997-0.114,201.993-0.008,302.989
		c0.019,17.249,7.23,24.161,24.712,24.178c74.125,0.076,148.251,0.079,222.377,0.032c19.61-0.011,25.947-6.233,26.007-25.51
		c0.101-31.041,0.065-62.082-0.027-93.12c-0.008-3.305-0.757-6.606-1.528-12.867c-17.585,24.791-34.402,46.362-48.771,69.459
		c-10.67,17.153-26.841,21.709-44.132,24.854c-14.566,2.649-24.699-4.746-26.217-19.744c-1.412-13.958-0.301-28.171-0.301-43.508
		c-28.66,0-56.391-0.024-84.123,0.014c-8.873,0.011-17.553-0.657-17.612-12.424c-0.06-11.58,8.196-12.753,17.308-12.718
		c28.725,0.114,57.447,0.035,86.169,0.032c20.621-0.002,36.571-13.979,40.649-36.895c-27.448,0-54.653,0.009-81.858-0.002
		c-16.217-0.009-32.523,0.912-48.591-0.639c-4.922-0.475-9.19-7.754-13.757-11.916c4.333-4.398,8.189-9.503,13.201-12.899
		c2.571-1.742,7.211-0.485,10.915-0.496c43.085-0.12,86.175-0.014,129.252-0.605c5.201-0.071,12.253-2.42,15.206-6.226
		c16.988-21.888,33.159-44.42,49.181-67.037c2.745-3.875,4.688-9.168,4.833-13.874c0.54-18.049,0.958-36.178-0.236-54.167
		c-0.402-6.011-5.097-16.165-8.981-16.749c-16.682-2.508-33.794-2.161-50.75-2.851c-1.248,10.179-2.532,20.354-3.719,30.539
		c-0.267,2.294-0.098,4.635-0.291,6.939c-1.281,15.145-11.411,26.534-26.528,26.906c-29.629,0.728-59.315,0.953-88.928-0.09
		c-19.067-0.67-28.622-12.511-28.896-32.07C259.623,222.913,259.742,212.756,259.742,201.578z M420.406,455.244
		c2.525-2.811,3.886-4.054,4.926-5.522c47.534-67.156,95.135-134.269,142.506-201.542c18.49-26.257,17.893-26.833-9.133-43.826
		c-8.78-5.522-14.107-4.045-19.532,4.007c-10.328,15.34-20.938,30.495-31.624,45.588c-37.4,52.818-75.006,105.489-112.256,158.413
		c-11.056,15.704-10.328,17.664,5.172,28.671C406.805,445.538,413.133,450.06,420.406,455.244z M366.671,170.703
		c-0.435-1.051-1.054-2.216-1.406-3.459c-4.35-15.267-13.641-25.008-30.094-26.056c-15.877-1.01-24.517,5.854-33.063,23.781
		c-1.46,3.071-6.358,6.19-9.79,6.329c-11.813,0.478-16.562,6.516-16.573,17.55c-0.016,14.778,0.011,29.553,0.002,44.328
		c-0.008,10.154,5.286,15.777,15.18,15.869c28.622,0.269,57.25,0.31,85.868-0.103c9.104-0.13,14.235-5.14,13.877-15.161
		c-0.429-11.99-0.093-24.006-0.093-36.012C390.577,173.011,390.574,173.011,366.671,170.703z M407.76,474.656
		c-12.92-9.769-23.696-17.916-34.888-26.376c-3.619,5.009-8.004,8.297-8.091,11.698c-0.314,11.981,0.847,24.004,1.45,36.01
		c9.174-1.65,18.985-1.844,27.305-5.468C399.086,488.103,402.507,480.8,407.76,474.656z"/>
	<path fill-rule="evenodd" clip-rule="evenodd" fill="none" d="M331.696,27.501c-18.084,3.351-36.406,5.753-54.216,10.2
		C143.504,71.14,46.724,182.424,31.392,319.935c-0.402,3.595-1.803,7.075-2.737,10.607c0-101.013,0-202.028,0-303.041
		C129.671,27.501,230.681,27.501,331.696,27.501z"/>
	<path fill-rule="evenodd" clip-rule="evenodd" fill="#2E1901" d="M331.704,328.183c-23.135-0.002-46.267-0.013-69.399,0.003
		c-8.438,0.005-16.404-1.086-16.703-11.903c-0.318-11.463,7.499-13.238,16.811-13.219c46.267,0.098,92.534,0.095,138.8-0.003
		c8.653-0.019,16.299,1.352,16.692,11.952c0.426,11.522-7.551,13.25-16.804,13.208C377.971,328.121,354.839,328.188,331.704,328.183
		z"/>
	<path fill-rule="evenodd" clip-rule="evenodd" fill="#2E1901" d="M344.587,170.871c-7.485,0-14.971,0-22.459,0
		c-0.717-0.877-1.431-1.754-2.145-2.631c4.078-2.932,8.15-8.18,12.236-8.188c4.732-0.011,9.473,4.588,14.208,7.187
		C345.814,168.45,345.2,169.661,344.587,170.871z"/>
</g>
</svg>
