<?xml version="1.0" encoding="utf-8"?>
<!-- Generator: Adobe Illustrator 16.0.0, SVG Export Plug-In . SVG Version: 6.00 Build 0)  -->
<!DOCTYPE svg PUBLIC "-//W3C//DTD SVG 1.1//EN" "http://www.w3.org/Graphics/SVG/1.1/DTD/svg11.dtd">
<svg version="1.1" id="Capa_1" xmlns="http://www.w3.org/2000/svg" xmlns:xlink="http://www.w3.org/1999/xlink" x="0px" y="0px"
	 width="284.93px" height="284.93px" viewBox="0 0 284.93 284.93" enable-background="new 0 0 284.93 284.93" xml:space="preserve">
<g>
	<path fill="#2E1901" d="M260.556,187.141L148.017,74.609c-1.608-1.61-3.458-2.416-5.551-2.416c-2.092,0-3.946,0.806-5.554,2.416
		L24.382,187.141c-1.612,1.612-2.416,3.462-2.416,5.556c0,2.093,0.806,3.944,2.416,5.554l12.071,12.071
		c1.61,1.609,3.462,2.413,5.555,2.413s3.945-0.804,5.555-2.413l94.904-94.903l94.908,94.908c1.609,1.61,3.463,2.408,5.552,2.408
		c2.096,0,3.948-0.804,5.558-2.408l12.072-12.076c1.609-1.607,2.408-3.461,2.408-5.553
		C262.966,190.603,262.166,188.752,260.556,187.141z"/>
</g>
</svg>
