<?xml version="1.0" encoding="utf-8"?>
<!-- Generator: Adobe Illustrator 16.0.0, SVG Export Plug-In . SVG Version: 6.00 Build 0)  -->
<!DOCTYPE svg PUBLIC "-//W3C//DTD SVG 1.1//EN" "http://www.w3.org/Graphics/SVG/1.1/DTD/svg11.dtd">
<svg version="1.1" id="Capa_1" xmlns="http://www.w3.org/2000/svg" xmlns:xlink="http://www.w3.org/1999/xlink" x="0px" y="0px"
	 width="841.889px" height="595.281px" viewBox="0 0 841.889 595.281" enable-background="new 0 0 841.889 595.281"
	 xml:space="preserve">
<path fill="#E7ECED" d="M332.361,466.7l-88.81,48.442c-5.211,2.842-9.895,6.335-14.253,10.143
	c51.778,43.657,118.618,69.996,191.646,69.996c72.489,0,138.902-25.945,190.534-69.008c-4.762-4.021-9.929-7.638-15.656-10.49
	l-95.1-47.544c-12.287-6.145-20.048-18.701-20.048-32.438V398.49c2.673-3.044,5.728-6.953,8.996-11.568
	c12.962-18.309,22.767-38.446,29.562-59.573c12.198-3.763,21.184-15.028,21.184-28.417v-39.827c0-8.761-3.897-16.589-9.951-22.07
	V179.46c0,0,11.827-89.595-109.51-89.595c-121.335,0-109.509,89.595-109.509,89.595v57.574c-6.064,5.481-9.951,13.31-9.951,22.07
	v39.827c0,10.491,5.515,19.724,13.771,25.059c9.951,43.32,36.009,74.5,36.009,74.5v36.391
	C351.263,448.134,344.008,460.343,332.361,466.7z"/>
<g>
	<path fill="#2E1901" d="M426.032,0.045C261.679-2.763,126.157,128.199,123.35,292.552
		c-1.595,93.189,39.939,176.944,106.072,232.643c4.324-3.774,8.963-7.233,14.118-10.042l88.809-48.442
		c11.647-6.356,18.903-18.565,18.903-31.842v-36.391c0,0-26.069-31.179-36.009-74.5c-8.244-5.335-13.771-14.556-13.771-25.058
		v-39.828c0-8.761,3.897-16.589,9.951-22.07v-57.573c0,0-11.826-89.596,109.51-89.596s109.509,89.596,109.509,89.596v57.573
		c6.065,5.481,9.951,13.31,9.951,22.07v39.828c0,13.389-8.985,24.653-21.183,28.416c-6.796,21.127-16.601,41.266-29.563,59.573
		c-3.269,4.616-6.323,8.524-8.996,11.568v37.313c0,13.736,7.761,26.304,20.049,32.437l95.099,47.544
		c5.705,2.853,10.86,6.458,15.611,10.468c64.134-53.485,105.567-133.455,107.105-223.511
		C721.348,138.375,590.398,2.853,426.032,0.045z"/>
</g>
</svg>
